<svg xmlns="http://www.w3.org/2000/svg" width="175" height="25"><g fill-rule="nonzero" fill="none"><path d="M24.762 12.167a.756.756 0 0 1-.307-.065l-6.438-2.883a.751.751 0 0 1 0-1.37l6.438-2.873a.752.752 0 0 1 .991.379.752.752 0 0 1-.38.991l-4.905 2.189 4.906 2.197a.75.75 0 0 1-.305 1.435z" fill="#67BECE"/><path d="M15.988 22.626c-7.078 0-13.266-4.778-15.045-11.62a.749.749 0 1 1 1.451-.378 14.044 14.044 0 0 0 13.594 10.498.75.75 0 0 1 0 1.5z" fill="#3F54A3"/><path d="M13.404 16.398a.75.75 0 0 1-.75-.75V1.391a.75.75 0 0 1 1.5 0v14.257a.75.75 0 0 1-.75.75z" fill="#67BECE"/><g fill="#F9C7C5"><path d="M41.71 24.798a.744.744 0 0 1-.53-.22l-3.273-3.274-3.273 3.273a.75.75 0 1 1-1.061-1.061l3.804-3.804a.749.749 0 0 1 1.06 0l3.804 3.805a.75.75 0 0 1-.531 1.281z"/><path d="M49.316 24.798a.746.746 0 0 1-.53-.22l-3.273-3.274-3.272 3.273a.75.75 0 1 1-1.061-1.061l3.803-3.804a.773.773 0 0 1 1.061 0l3.804 3.805a.75.75 0 0 1-.532 1.281z"/><path d="M56.924 24.798a.746.746 0 0 1-.531-.22l-3.272-3.274-3.273 3.273a.75.75 0 1 1-1.061-1.061l3.804-3.804a.75.75 0 0 1 1.06 0l3.803 3.805a.75.75 0 0 1-.53 1.281z"/><path d="M64.529 24.798a.744.744 0 0 1-.529-.22l-3.273-3.274-3.273 3.273a.75.75 0 1 1-1.061-1.061l3.803-3.804a.773.773 0 0 1 1.061 0l3.805 3.805a.75.75 0 0 1-.533 1.281z"/><path d="M72.137 24.798a.746.746 0 0 1-.53-.22l-3.274-3.274-3.271 3.273a.75.75 0 1 1-1.061-1.061l3.803-3.804a.773.773 0 0 1 1.061 0l3.804 3.805a.75.75 0 0 1-.532 1.281z"/><g><path d="M79.743 24.798a.744.744 0 0 1-.53-.22l-3.273-3.274-3.272 3.273a.75.75 0 1 1-1.061-1.061l3.803-3.804a.773.773 0 0 1 1.061 0l3.804 3.805a.75.75 0 0 1-.532 1.281z"/><path d="M87.35 24.798a.746.746 0 0 1-.53-.22l-3.273-3.274-3.272 3.273a.75.75 0 1 1-1.061-1.061l3.803-3.804a.773.773 0 0 1 1.061 0l3.804 3.805a.75.75 0 0 1-.532 1.281z"/><path d="M94.957 24.798a.746.746 0 0 1-.531-.22l-3.272-3.274-3.273 3.273a.75.75 0 1 1-1.061-1.061l3.804-3.804a.75.75 0 0 1 1.06 0l3.803 3.805a.75.75 0 0 1-.53 1.281z"/><path d="M102.562 24.798a.744.744 0 0 1-.529-.22l-3.273-3.274-3.273 3.273a.75.75 0 1 1-1.061-1.061l3.804-3.804a.749.749 0 0 1 1.06 0l3.804 3.805a.75.75 0 0 1-.532 1.281z"/><path d="M110.17 24.798a.746.746 0 0 1-.53-.22l-3.273-3.274-3.272 3.273a.75.75 0 1 1-1.061-1.061l3.803-3.804a.75.75 0 0 1 1.06 0l3.804 3.805a.75.75 0 0 1-.531 1.281z"/></g></g></g></svg>